<svg xmlns="http://www.w3.org/2000/svg" width="145.835" height="56.621" viewBox="0 0 145.835 56.621">
  <g id="Group_5" data-name="Group 5" transform="translate(0)">
    <path id="Path_1" data-name="Path 1" d="M1989.825,238l-6.484,17.341s-12.968,4.825-17.341,7.841l11.837,8.972s19.9-19.3,48.1-21.261a163.444,163.444,0,0,0-29.1,1.508Z" transform="translate(-1966 -238)" fill="#c32b24"/>
    <g id="Group_1" data-name="Group 1" transform="translate(4.599 13.771)">
      <path id="Path_2" data-name="Path 2" d="M1996.5,428.372c15.984-25.936,38.753-13.571,38.753-13.571l-9.5-19.3C2004.492,405.9,1996.5,428.372,1996.5,428.372Z" transform="translate(-1996.5 -385.521)" fill="#2a5fab"/>
      <path id="Path_3" data-name="Path 3" d="M2213.5,337.644l3.921,8.143c22.618-18.4,65.442-14.777,65.442-14.777C2241.094,324.827,2213.5,337.644,2213.5,337.644Z" transform="translate(-2180.779 -329.324)" fill="#2a5fab"/>
    </g>
    <g id="Group_2" data-name="Group 2" transform="translate(44.599 25.071)">
      <path id="Path_4" data-name="Path 4" d="M2519.918,426.264c3.07-5.268,10.538-8.062,19.49-10.02h-15.994l1.017-2.913a2.44,2.44,0,0,1,2.3-1.636h20.135l2.593-7.431h-26.849a4.443,4.443,0,0,0-4.2,2.98l-1.553,4.451-1.587,4.549-2.593,7.431-1.534,4.4-.532,1.524a4.443,4.443,0,0,0,4.2,5.907h23.748l2.593-7.431H2521.2A1.36,1.36,0,0,1,2519.918,426.264Z" transform="translate(-2472.883 -404.263)" fill="#c32b24"/>
      <path id="Path_5" data-name="Path 5" d="M2294.172,416.938h-16.214l.538-2.018a3.355,3.355,0,0,1,2.926-2.515h20.18l2.727-7.4h-29.972a5.031,5.031,0,0,0-4.388,3.772l-2.7,10.146c-.8,3,.733,5.425,3.419,5.425h17.977l-.457,1.712a3.561,3.561,0,0,1-3.106,2.67h-21.05l-2.275,7.4h28.767a5.03,5.03,0,0,0,4.387-3.772l2.664-9.995C2298.39,419.366,2296.859,416.938,2294.172,416.938Z" transform="translate(-2261.773 -404.889)" fill="#c32b24"/>
      <path id="Path_6" data-name="Path 6" d="M2734.989,429.743l.662-2.1.71-2.254,2.32-7.363,1.419-4.508,2.319-7.363h-8.9l-2.319,7.363-1.42,4.508-2.319,7.363-1.372,4.358-2.319,7.363h29.253l2.319-7.363Z" transform="translate(-2654.109 -405.866)" fill="#c32b24"/>
    </g>
  </g>
</svg>
